<svg width="73" height="73" viewBox="0 0 73 73" fill="none" xmlns="http://www.w3.org/2000/svg">
<path d="M24.736 6.39229C23.83 11.1739 22.7227 18.2708 22.1187 25.4684C21.0617 38.1523 21.716 46.6585 21.716 46.6585L3.84787 63.6207C3.84787 63.6207 2.48888 54.1078 1.78422 43.3869C1.38156 36.743 1.23056 30.9044 1.23056 27.3811C1.23056 27.1797 1.33123 26.9784 1.33123 26.7771C1.33123 26.5254 1.63322 24.1598 3.94853 21.9451C6.46517 19.5291 25.038 4.98297 24.736 6.39229Z" fill="#1496FF"/>
<path d="M24.736 6.39226C23.83 11.1739 22.7227 18.2708 22.1187 25.4684C22.1187 25.4684 2.33788 23.1028 1.23056 27.8844C1.23056 27.6327 1.58289 24.7134 3.8982 22.4988C6.41484 20.0828 25.038 4.98294 24.736 6.39226Z" fill="#1284EA"/>
<path d="M1.23057 26.7267C1.23057 27.0791 1.23057 27.4314 1.23057 27.834C1.4319 26.9784 1.78423 26.3744 2.48889 25.4181C3.94854 23.5558 6.31418 23.0524 7.2705 22.9518C12.1025 22.2974 19.2497 21.5424 26.4473 21.3411C39.1815 20.9385 47.5871 21.9954 47.5871 21.9954L65.4552 5.03329C65.4552 5.03329 56.0933 3.27164 45.4228 2.01332C38.4265 1.15766 32.2859 0.70467 28.8129 0.503339C28.5613 0.503339 26.095 0.201342 23.7797 2.41598C21.263 4.83196 8.47849 16.9622 3.34455 21.8444C1.02924 24.0591 1.23057 26.5254 1.23057 26.7267Z" fill="#B4DC00"/>
<path d="M64.8009 48.4202C59.9689 49.0745 52.8217 49.8798 45.6241 50.1315C32.8899 50.5341 24.434 49.4771 24.434 49.4771L6.56584 66.4896C6.56584 66.4896 16.0284 68.3519 26.699 69.5599C33.2422 70.3149 39.0305 70.7176 42.5538 70.9189C42.8055 70.9189 43.2081 70.7176 43.4598 70.7176C43.7114 70.7176 46.1777 70.2646 48.4931 68.0499C51.0097 65.634 66.2102 48.2692 64.8009 48.4202Z" fill="#6F2DA8"/>
<path d="M64.8009 48.4202C59.969 49.0745 52.8217 49.8798 45.6241 50.1315C45.6241 50.1315 46.9831 70.0129 42.2015 70.8686C42.4531 70.8686 45.7248 70.7176 48.0401 68.503C50.5567 66.087 66.2102 48.2692 64.8009 48.4202Z" fill="#591F91"/>
<path d="M43.2584 70.9693C42.9061 70.9693 42.5538 70.9189 42.1511 70.9189C43.0571 70.7679 43.6611 70.4659 44.6174 69.7613C46.5301 68.4023 47.1341 66.0367 47.3354 65.0803C48.1911 60.2987 49.3487 53.2018 49.9024 46.0042C50.909 33.3203 50.305 24.8644 50.305 24.8644L68.1732 7.85194C68.1732 7.85194 69.4818 17.3145 70.2368 28.0354C70.6898 35.0317 70.8408 41.2226 70.8911 44.6452C70.8911 44.8969 71.0925 47.3632 68.7772 49.5778C66.2605 51.9938 53.476 64.1743 48.3924 69.0566C45.9764 71.2713 43.5101 70.9693 43.2584 70.9693Z" fill="#73BE28"/>
</svg>
